<svg width="22" height="24" viewBox="0 0 22 24" fill="none" xmlns="http://www.w3.org/2000/svg">
<g clip-path="url(#clip0_14_2003)">
<path d="M11.0049 6.6094C7.88169 6.6094 5.36249 9.01409 5.36249 11.9953C5.36249 14.9766 7.88169 17.3813 11.0049 17.3813C14.1281 17.3813 16.6473 14.9766 16.6473 11.9953C16.6473 9.01409 14.1281 6.6094 11.0049 6.6094ZM11.0049 15.4969C8.9866 15.4969 7.3366 13.9266 7.3366 11.9953C7.3366 10.0641 8.98169 8.49377 11.0049 8.49377C13.0281 8.49377 14.6732 10.0641 14.6732 11.9953C14.6732 13.9266 13.0232 15.4969 11.0049 15.4969ZM18.1942 6.38909C18.1942 7.08752 17.6049 7.64534 16.8781 7.64534C16.1464 7.64534 15.562 7.08284 15.562 6.38909C15.562 5.69534 16.1513 5.13284 16.8781 5.13284C17.6049 5.13284 18.1942 5.69534 18.1942 6.38909ZM21.9312 7.66409C21.8477 5.98127 21.4451 4.49065 20.1536 3.26252C18.8669 2.0344 17.3053 1.65002 15.5424 1.56565C13.7254 1.46721 8.27946 1.46721 6.46249 1.56565C4.70446 1.64534 3.14285 2.02971 1.85134 3.25784C0.559819 4.48596 0.162051 5.97659 0.0736587 7.6594C-0.0294662 9.39377 -0.0294662 14.5922 0.0736587 16.3266C0.157141 18.0094 0.559819 19.5 1.85134 20.7281C3.14285 21.9563 4.69955 22.3406 6.46249 22.425C8.27946 22.5235 13.7254 22.5235 15.5424 22.425C17.3053 22.3453 18.8669 21.961 20.1536 20.7281C21.4402 19.5 21.8428 18.0094 21.9312 16.3266C22.0344 14.5922 22.0344 9.39846 21.9312 7.66409ZM19.5839 18.1875C19.2009 19.1063 18.4594 19.8141 17.4919 20.1844C16.0433 20.7328 12.6058 20.6063 11.0049 20.6063C9.40401 20.6063 5.9616 20.7281 4.51785 20.1844C3.55535 19.8188 2.81384 19.111 2.42589 18.1875C1.85134 16.8047 1.98393 13.5235 1.98393 11.9953C1.98393 10.4672 1.85625 7.18127 2.42589 5.80315C2.80892 4.8844 3.55044 4.17659 4.51785 3.80627C5.96651 3.25784 9.40401 3.3844 11.0049 3.3844C12.6058 3.3844 16.0482 3.26252 17.4919 3.80627C18.4544 4.1719 19.196 4.87971 19.5839 5.80315C20.1585 7.18596 20.0259 10.4672 20.0259 11.9953C20.0259 13.5235 20.1585 16.8094 19.5839 18.1875Z" fill="white"/>
</g>
<defs>
<clipPath id="clip0_14_2003">
<rect width="22" height="24" fill="white"/>
</clipPath>
</defs>
</svg>
